<mxfile host="app.diagrams.net" modified="2023-11-21T13:53:51.615Z" agent="Mozilla/5.0 (Windows NT 10.0; Win64; x64; rv:109.0) Gecko/20100101 Firefox/118.0" etag="SsBO1goulP20q2kvhGK_" version="22.1.3" type="onedrive">
  <diagram name="Page-1" id="c4acf3e9-155e-7222-9cf6-157b1a14988f">
    <mxGraphModel grid="1" page="1" gridSize="10" guides="1" tooltips="1" connect="1" arrows="1" fold="1" pageScale="1" pageWidth="850" pageHeight="1100" background="none" math="0" shadow="0">
      <root>
        <mxCell id="0" />
        <mxCell id="1" parent="0" />
        <mxCell id="l4-NlTvxBI4YEXpuPn90-14" style="edgeStyle=orthogonalEdgeStyle;rounded=0;orthogonalLoop=1;jettySize=auto;html=1;exitX=0.75;exitY=0;exitDx=0;exitDy=0;entryX=0.5;entryY=1;entryDx=0;entryDy=0;endArrow=none;endFill=0;" edge="1" parent="1" source="l4-NlTvxBI4YEXpuPn90-2" target="l4-NlTvxBI4YEXpuPn90-5">
          <mxGeometry relative="1" as="geometry">
            <Array as="points">
              <mxPoint x="325" y="390" />
              <mxPoint x="525" y="390" />
            </Array>
          </mxGeometry>
        </mxCell>
        <mxCell id="l4-NlTvxBI4YEXpuPn90-2" value="&lt;p style=&quot;margin:0px;margin-top:4px;text-align:center;&quot;&gt;&lt;b&gt;GameObject&lt;/b&gt;&lt;/p&gt;&lt;hr size=&quot;1&quot;&gt;&lt;p style=&quot;margin:0px;margin-left:4px;&quot;&gt;+ position: vector2 &lt;br&gt;&lt;/p&gt;&lt;p style=&quot;margin:0px;margin-left:4px;&quot;&gt;+ move_speed: float&lt;br&gt;&lt;/p&gt;&lt;p style=&quot;margin:0px;margin-left:4px;&quot;&gt;&lt;br&gt;&lt;/p&gt;&lt;p style=&quot;margin:0px;margin-left:4px;&quot;&gt;- sprite: sf::Sprite&lt;/p&gt;&lt;p style=&quot;margin:0px;margin-left:4px;&quot;&gt;- texture: sf::Texture &lt;br&gt;&lt;/p&gt;&lt;hr size=&quot;1&quot;&gt;&lt;p style=&quot;margin:0px;margin-left:4px;&quot;&gt;+ Collision(): void&lt;/p&gt;&lt;p style=&quot;margin:0px;margin-left:4px;&quot;&gt;+ UpdatePos(): void&lt;br&gt;&lt;/p&gt;&lt;p style=&quot;margin:0px;margin-left:4px;&quot;&gt;+ Move() abstract void&lt;br&gt;&lt;/p&gt;" style="verticalAlign=top;align=left;overflow=fill;fontSize=12;fontFamily=Helvetica;html=1;whiteSpace=wrap;" vertex="1" parent="1">
          <mxGeometry x="190" y="430" width="180" height="170" as="geometry" />
        </mxCell>
        <mxCell id="l4-NlTvxBI4YEXpuPn90-11" style="edgeStyle=orthogonalEdgeStyle;rounded=0;orthogonalLoop=1;jettySize=auto;html=1;exitX=0.25;exitY=0;exitDx=0;exitDy=0;entryX=0;entryY=0.5;entryDx=0;entryDy=0;endArrow=block;endFill=0;endSize=12;" edge="1" parent="1" source="l4-NlTvxBI4YEXpuPn90-3" target="l4-NlTvxBI4YEXpuPn90-2">
          <mxGeometry relative="1" as="geometry" />
        </mxCell>
        <mxCell id="l4-NlTvxBI4YEXpuPn90-13" style="edgeStyle=orthogonalEdgeStyle;rounded=0;orthogonalLoop=1;jettySize=auto;html=1;exitX=1;exitY=0.5;exitDx=0;exitDy=0;entryX=0;entryY=0.5;entryDx=0;entryDy=0;endArrow=none;endFill=0;endSize=10;startArrow=none;startFill=0;startSize=10;jumpSize=6;" edge="1" parent="1" source="l4-NlTvxBI4YEXpuPn90-3" target="l4-NlTvxBI4YEXpuPn90-4">
          <mxGeometry relative="1" as="geometry" />
        </mxCell>
        <mxCell id="l4-NlTvxBI4YEXpuPn90-3" value="&lt;p style=&quot;margin:0px;margin-top:4px;text-align:center;&quot;&gt;&lt;b&gt;Paddle&lt;/b&gt;&lt;/p&gt;&lt;hr size=&quot;1&quot;&gt;&lt;p style=&quot;margin:0px;margin-left:4px;&quot;&gt;+ score: int&lt;br&gt;&lt;/p&gt;&lt;hr size=&quot;1&quot;&gt;" style="verticalAlign=top;align=left;overflow=fill;fontSize=12;fontFamily=Helvetica;html=1;whiteSpace=wrap;" vertex="1" parent="1">
          <mxGeometry x="60" y="650" width="160" height="90" as="geometry" />
        </mxCell>
        <mxCell id="l4-NlTvxBI4YEXpuPn90-12" style="edgeStyle=orthogonalEdgeStyle;rounded=0;orthogonalLoop=1;jettySize=auto;html=1;exitX=0.75;exitY=0;exitDx=0;exitDy=0;entryX=1;entryY=0.5;entryDx=0;entryDy=0;endArrow=block;endFill=0;startSize=6;endSize=12;" edge="1" parent="1" source="l4-NlTvxBI4YEXpuPn90-4" target="l4-NlTvxBI4YEXpuPn90-2">
          <mxGeometry relative="1" as="geometry" />
        </mxCell>
        <mxCell id="l4-NlTvxBI4YEXpuPn90-4" value="&lt;p style=&quot;margin:0px;margin-top:4px;text-align:center;&quot;&gt;&lt;b&gt;Ball&lt;/b&gt;&lt;br&gt;&lt;/p&gt;&lt;hr size=&quot;1&quot;&gt;&lt;p style=&quot;margin:0px;margin-left:4px;&quot;&gt;+ move_direction: vector2&lt;br&gt;&lt;/p&gt;&lt;hr size=&quot;1&quot;&gt;&lt;p style=&quot;margin:0px;margin-left:4px;&quot;&gt;+ Bounce(): void&lt;br&gt;&lt;/p&gt;" style="verticalAlign=top;align=left;overflow=fill;fontSize=12;fontFamily=Helvetica;html=1;whiteSpace=wrap;" vertex="1" parent="1">
          <mxGeometry x="350" y="650" width="160" height="90" as="geometry" />
        </mxCell>
        <mxCell id="l4-NlTvxBI4YEXpuPn90-5" value="&lt;p style=&quot;margin:0px;margin-top:4px;text-align:center;&quot;&gt;&lt;b&gt;Game&lt;/b&gt;&lt;br&gt;&lt;/p&gt;&lt;hr size=&quot;1&quot;&gt;&lt;div style=&quot;height:2px;&quot;&gt;&lt;/div&gt;&lt;div&gt;&amp;nbsp;+ score_for_win: int&lt;/div&gt;&lt;div&gt;&lt;br&gt;&lt;/div&gt;&lt;div&gt;&amp;nbsp;+ game_states: enum&lt;/div&gt;&lt;div&gt;&amp;nbsp;+ menu_option: int&lt;br&gt;&lt;/div&gt;&lt;div&gt;&lt;br&gt;&lt;/div&gt;&lt;div&gt;&amp;nbsp;- title_text: string[]&lt;/div&gt;&lt;div&gt;&amp;nbsp;- game_hud_text: string[]&lt;/div&gt;&lt;div&gt;&amp;nbsp;- paused_text: string[]&lt;br&gt;&lt;/div&gt;&lt;div&gt;&amp;nbsp;- win_text: string[]&lt;/div&gt;&lt;div&gt;&amp;nbsp;- lose_text: string[]&lt;br&gt;&lt;/div&gt;&lt;hr size=&quot;1&quot;&gt;&lt;div style=&quot;height:2px;&quot;&gt;&lt;div&gt;&amp;nbsp;+ KeyPressed() : void &lt;br&gt;&lt;/div&gt;&lt;div&gt;&amp;nbsp;+ SpawnObjects(): void&lt;/div&gt;&lt;div&gt;&amp;nbsp;+ Tally(): void&lt;br&gt;&lt;/div&gt;&amp;nbsp;+ Play(): void&lt;/div&gt;" style="verticalAlign=top;align=left;overflow=fill;fontSize=12;fontFamily=Helvetica;html=1;whiteSpace=wrap;" vertex="1" parent="1">
          <mxGeometry x="430" y="70" width="190" height="260" as="geometry" />
        </mxCell>
        <mxCell id="l4-NlTvxBI4YEXpuPn90-15" style="edgeStyle=orthogonalEdgeStyle;rounded=0;orthogonalLoop=1;jettySize=auto;html=1;exitX=0.5;exitY=1;exitDx=0;exitDy=0;entryX=0.5;entryY=0;entryDx=0;entryDy=0;endArrow=diamondThin;endFill=1;startSize=6;endSize=16;" edge="1" parent="1" source="l4-NlTvxBI4YEXpuPn90-10" target="l4-NlTvxBI4YEXpuPn90-2">
          <mxGeometry relative="1" as="geometry" />
        </mxCell>
        <mxCell id="l4-NlTvxBI4YEXpuPn90-10" value="&lt;p style=&quot;margin:0px;margin-top:4px;text-align:center;&quot;&gt;&lt;b&gt;Vector2&lt;/b&gt;&lt;br&gt;&lt;/p&gt;&lt;hr size=&quot;1&quot;&gt;&lt;p style=&quot;margin:0px;margin-left:4px;&quot;&gt;+ x: double&lt;/p&gt;&lt;p style=&quot;margin:0px;margin-left:4px;&quot;&gt;+ y: double&lt;br&gt;&lt;/p&gt;&lt;hr size=&quot;1&quot;&gt;&lt;p style=&quot;margin:0px;margin-left:4px;&quot;&gt;+ Add() : void&lt;/p&gt;&lt;p style=&quot;margin:0px;margin-left:4px;&quot;&gt;+ Subtract(): void&lt;/p&gt;&lt;p style=&quot;margin:0px;margin-left:4px;&quot;&gt;+ Multiply(): void&lt;/p&gt;&lt;p style=&quot;margin:0px;margin-left:4px;&quot;&gt;+ Divide(): void&lt;br&gt;&lt;/p&gt;&lt;p style=&quot;margin:0px;margin-left:4px;&quot;&gt;&lt;br&gt;&lt;/p&gt;&lt;p style=&quot;margin:0px;margin-left:4px;&quot;&gt;+ GetMagnitude(): double&lt;/p&gt;&lt;p style=&quot;margin:0px;margin-left:4px;&quot;&gt;+ GetUnitVector() : vector2&lt;/p&gt;" style="verticalAlign=top;align=left;overflow=fill;fontSize=12;fontFamily=Helvetica;html=1;whiteSpace=wrap;" vertex="1" parent="1">
          <mxGeometry x="197.5" y="190" width="165" height="180" as="geometry" />
        </mxCell>
        <mxCell id="l4-NlTvxBI4YEXpuPn90-16" value="1..*" style="text;html=1;strokeColor=none;fillColor=none;align=center;verticalAlign=middle;whiteSpace=wrap;rounded=0;" vertex="1" parent="1">
          <mxGeometry x="230" y="400" width="60" height="30" as="geometry" />
        </mxCell>
        <mxCell id="l4-NlTvxBI4YEXpuPn90-18" value="Games in C++ - Pong Game UML Class Diagram" style="text;align=center;fontStyle=1;verticalAlign=middle;spacingLeft=3;spacingRight=3;strokeColor=none;rotatable=0;points=[[0,0.5],[1,0.5]];portConstraint=eastwest;html=1;" vertex="1" parent="1">
          <mxGeometry x="10" y="10" width="290" height="26" as="geometry" />
        </mxCell>
        <mxCell id="l4-NlTvxBI4YEXpuPn90-19" value="Dominik Heiler" style="text;align=center;fontStyle=1;verticalAlign=middle;spacingLeft=3;spacingRight=3;strokeColor=none;rotatable=0;points=[[0,0.5],[1,0.5]];portConstraint=eastwest;html=1;" vertex="1" parent="1">
          <mxGeometry x="20" y="36" width="90" height="26" as="geometry" />
        </mxCell>
        <mxCell id="l4-NlTvxBI4YEXpuPn90-22" style="edgeStyle=orthogonalEdgeStyle;rounded=0;orthogonalLoop=1;jettySize=auto;html=1;exitX=0;exitY=0.5;exitDx=0;exitDy=0;exitPerimeter=0;endArrow=none;endFill=0;opacity=40;dashed=1;" edge="1" parent="1" source="l4-NlTvxBI4YEXpuPn90-21" target="l4-NlTvxBI4YEXpuPn90-5">
          <mxGeometry relative="1" as="geometry" />
        </mxCell>
        <mxCell id="l4-NlTvxBI4YEXpuPn90-21" value="All text for buttons and misc. flavour text is to be kept in strings for organisation" style="shape=note;whiteSpace=wrap;html=1;backgroundOutline=1;darkOpacity=0.05;size=15;" vertex="1" parent="1">
          <mxGeometry x="670" y="150" width="130" height="100" as="geometry" />
        </mxCell>
        <mxCell id="l4-NlTvxBI4YEXpuPn90-23" value="&#39;Tally()&#39; is used to update scores and reset object positions, while &#39;Play()&#39; will set it so objects are allowed to move again" style="shape=note;whiteSpace=wrap;html=1;backgroundOutline=1;darkOpacity=0.05;size=15;" vertex="1" parent="1">
          <mxGeometry x="670" y="300" width="130" height="100" as="geometry" />
        </mxCell>
        <mxCell id="l4-NlTvxBI4YEXpuPn90-24" style="edgeStyle=orthogonalEdgeStyle;rounded=0;orthogonalLoop=1;jettySize=auto;html=1;exitX=0;exitY=0.5;exitDx=0;exitDy=0;exitPerimeter=0;entryX=0.991;entryY=0.867;entryDx=0;entryDy=0;entryPerimeter=0;endArrow=none;endFill=0;opacity=40;dashed=1;" edge="1" parent="1" source="l4-NlTvxBI4YEXpuPn90-23" target="l4-NlTvxBI4YEXpuPn90-5">
          <mxGeometry relative="1" as="geometry" />
        </mxCell>
        <mxCell id="l4-NlTvxBI4YEXpuPn90-26" style="edgeStyle=orthogonalEdgeStyle;rounded=0;orthogonalLoop=1;jettySize=auto;html=1;exitX=0;exitY=0.5;exitDx=0;exitDy=0;exitPerimeter=0;endArrow=none;endFill=0;opacity=40;dashed=1;" edge="1" parent="1" source="l4-NlTvxBI4YEXpuPn90-25" target="l4-NlTvxBI4YEXpuPn90-4">
          <mxGeometry relative="1" as="geometry" />
        </mxCell>
        <mxCell id="l4-NlTvxBI4YEXpuPn90-25" value="&#39;Bounce()&#39; will calculate a new movement direction for the ball evertime it collides with a wall or another object" style="shape=note;whiteSpace=wrap;html=1;backgroundOutline=1;darkOpacity=0.05;size=15;" vertex="1" parent="1">
          <mxGeometry x="580" y="580" width="170" height="90" as="geometry" />
        </mxCell>
        <mxCell id="keJgv_Zf3CbYExNAJZln-1" value="Note:" style="text;html=1;align=center;verticalAlign=middle;resizable=0;points=[];autosize=1;strokeColor=none;fillColor=none;" vertex="1" parent="1">
          <mxGeometry x="570" y="550" width="50" height="30" as="geometry" />
        </mxCell>
        <mxCell id="keJgv_Zf3CbYExNAJZln-2" value="Note:" style="text;html=1;align=center;verticalAlign=middle;resizable=0;points=[];autosize=1;strokeColor=none;fillColor=none;" vertex="1" parent="1">
          <mxGeometry x="660" y="270" width="50" height="30" as="geometry" />
        </mxCell>
        <mxCell id="keJgv_Zf3CbYExNAJZln-3" value="Note:" style="text;html=1;align=center;verticalAlign=middle;resizable=0;points=[];autosize=1;strokeColor=none;fillColor=none;" vertex="1" parent="1">
          <mxGeometry x="660" y="120" width="50" height="30" as="geometry" />
        </mxCell>
      </root>
    </mxGraphModel>
  </diagram>
</mxfile>
